<svg xmlns="http://www.w3.org/2000/svg" viewBox="0 0 120 120" width="120" height="120" preserveAspectRatio="xMaxYMin meet" aria-hidden="true"><g transform="translate(78 40) scale(1.1)" fill="#D2EAFB"><circle cx="-18" cy="0" r="13"/><circle cx="0" cy="-8" r="18"/><circle cx="19" cy="-1" r="14"/><rect x="-31" y="-2" width="64" height="15" rx="7.5"/></g><g transform="translate(94 78) scale(0.7)" fill="#EAF5FD"><circle cx="-18" cy="0" r="13"/><circle cx="0" cy="-8" r="18"/><circle cx="19" cy="-1" r="14"/><rect x="-31" y="-2" width="64" height="15" rx="7.5"/></g><g transform="translate(62 70) scale(0.8)"><ellipse cx="0" cy="0" rx="13" ry="10" fill="#FFDD57"/><circle cx="9" cy="-8" r="8" fill="#FFDD57"/><path d="M16 -9 L23 -6 L16 -4 Z" fill="#FFB36B"/><circle cx="11" cy="-10" r="1.6" fill="#6B5B4B"/><circle cx="7" cy="-5" r="2.2" fill="#FF9C84" opacity=".5"/><path d="M-4 -2 C-10 -12 -20 -12 -22 -6 C-16 -2 -9 0 -4 -2 Z" fill="#FFE993"/><path d="M-12 3 L-21 6 L-13 8 Z" fill="#FFDD57"/></g></svg>
